<?xml version="1.0" encoding="UTF-8"?>
<svg version="1.1" xmlns="http://www.w3.org/2000/svg" width="200" height="200">
<path d="M0 0 C3.26738025 0.2904338 5.3867751 0.48568235 7.9375 2.625 C9.8254393 6.84509962 8.40761808 10.77714575 7 15 C7.928125 14.95875 8.85625 14.9175 9.8125 14.875 C13 15 13 15 16 17 C16 17.66 16 18.32 16 19 C15.16597656 19.00515625 14.33195312 19.0103125 13.47265625 19.015625 C7.94514962 19.39552236 4.28139613 19.77869693 0.16796875 23.69921875 C-2.83457263 27.50435015 -5.46056772 31.38170317 -7 36 C-6.12859375 35.45730469 -5.2571875 34.91460937 -4.359375 34.35546875 C3.07420518 29.84578443 10.18686488 26.00762092 19 25 C20.485 25.495 20.485 25.495 22 26 C22.66 24.02 23.32 22.04 24 20 C24.66 20 25.32 20 26 20 C25.773125 18.783125 25.54625 17.56625 25.3125 16.3125 C24.94618911 13.30238004 24.94514339 12.13409394 26.125 9.25 C29.52557519 5.16930977 32.97690872 2.72220273 38 1 C38 1.66 38 2.32 38 3 C39.32 3.33 40.64 3.66 42 4 C42.054348 6.0622048 42.09294961 8.12482816 42.125 10.1875 C42.14820313 11.33605469 42.17140625 12.48460938 42.1953125 13.66796875 C42.00484152 16.91740372 41.39360127 19.08660521 40 22 C38.56274129 22.16873478 37.12518162 22.33490737 35.6875 22.5 C34.88699219 22.5928125 34.08648437 22.685625 33.26171875 22.78125 C31 23 31 23 28 23 C27.19770863 24.49434423 26.40878133 25.99586472 25.625 27.5 C24.96371094 28.75296875 24.96371094 28.75296875 24.2890625 30.03125 C21.28988572 36.938445 20.64899699 43.56783175 20.375 51 C20.33632812 51.87011719 20.29765625 52.74023438 20.2578125 53.63671875 C20.16459113 55.75750486 20.08125864 57.87872185 20 60 C20.66 60 21.32 60 22 60 C22 61.32 22 62.64 22 64 C21.34 64 20.68 64 20 64 C20 64.99 20 65.98 20 67 C20.94875 66.9175 21.8975 66.835 22.875 66.75 C27.21815277 66.72351736 30.65194421 68.28097833 34.5703125 70.02734375 C42.94137223 73.3784593 50.47677745 72.04156351 58.90234375 69.8046875 C72.55497685 66.25810185 72.55497685 66.25810185 79 68 C75.88784553 70.07476964 73.67060134 70.71064913 70.0625 71.5625 C69.02222656 71.81128906 67.98195312 72.06007813 66.91015625 72.31640625 C65.94980469 72.54199219 64.98945313 72.76757812 64 73 C62.66602491 73.33075573 61.3323837 73.66289087 60 74 C60 74.66 60 75.32 60 76 C48.46704838 76.72206306 37.93094784 74.64364928 27 71 C25.42073022 70.87566595 23.83741835 70.7990886 22.25390625 70.75390625 C20.87428711 70.70459961 20.87428711 70.70459961 19.46679688 70.65429688 C17.53462096 70.59322608 15.60232233 70.53591844 13.66992188 70.48242188 C12.74888672 70.44826172 11.82785156 70.41410156 10.87890625 70.37890625 C10.0391626 70.3538501 9.19941895 70.32879395 8.33422852 70.30297852 C5.82661523 69.97749498 4.22157622 69.16354587 2 68 C-1.42588903 67.79025169 -3.7322278 67.9107426 -7 69 C-5.125 65.125 -5.125 65.125 -4 64 C0.66745443 63.73072378 3.73912377 64.23329522 8 66 C10.64 66.33 13.28 66.66 16 67 C16 60.07 16 53.14 16 46 C15.34 46 14.68 46 14 46 C14 46.66 14 47.32 14 48 C9.38565925 50.53044493 4.99065483 50.21579803 0 49 C-0.66 48.34 -1.32 47.68 -2 47 C-1.625 44.375 -1.625 44.375 -1 42 C6.36143498 39.47802691 6.36143498 39.47802691 10.37890625 40.7578125 C12.30454398 41.7430225 14.16013437 42.86262852 16 44 C16.33 39.38 16.66 34.76 17 30 C8.77103645 31.76334933 1.90883454 33.775304 -3 41 C-4.10515435 43.55128254 -4.94112807 46.15441458 -5.75 48.8125 C-6.08064453 49.85180664 -6.08064453 49.85180664 -6.41796875 50.91210938 C-6.95503027 52.60502068 -7.47888708 54.30211158 -8 56 C-9.32 55.34 -10.64 54.68 -12 54 C-11.43393721 49.30976546 -10.81462495 44.65499974 -10 40 C-10.598125 40.639375 -11.19625 41.27875 -11.8125 41.9375 C-14 44 -14 44 -17 45 C-18.35386936 46.65002828 -19.68678142 48.3174387 -21 50 C-24 52 -24 52 -27 52 C-26.505 58.93 -26.505 58.93 -26 66 C-30 67 -30 67 -31.96484375 66.06640625 C-38.09241454 61.39489189 -42.10087039 56.71640239 -43.9375 49.125 C-44.288125 48.09375 -44.63875 47.0625 -45 46 C-47.97187717 44.53641935 -47.97187717 44.53641935 -51 44 C-51.495 43.505 -51.495 43.505 -52 43 C-54.84697902 42.54038637 -54.84697902 42.54038637 -58 43 C-60.50661438 44.93174573 -60.50661438 44.93174573 -62.625 47.5 C-64.8515625 50.03125 -64.8515625 50.03125 -67 52 C-68.32 52 -69.64 52 -71 52 C-70.67 53.98 -70.34 55.96 -70 58 C-70.66 58 -71.32 58 -72 58 C-72.12375 58.7425 -72.2475 59.485 -72.375 60.25 C-72.95486701 62.80141485 -73.73708739 64.7267573 -75 67 C-75.99 67 -76.98 67 -78 67 C-77.50868776 63.166741 -76.90360807 59.41709961 -76.0625 55.64453125 C-73.42077549 43.71973741 -72.25966223 32.2041247 -72 20 C-70.68 20.66 -69.36 21.32 -68 22 C-68 23.32 -68 24.64 -68 26 C-67.40445313 26.10183594 -66.80890625 26.20367187 -66.1953125 26.30859375 C-63.63726351 27.11424263 -62.65588303 28.09047508 -60.875 30.0625 C-59.43065299 31.69832205 -59.43065299 31.69832205 -58 33 C-57.34 33 -56.68 33 -56 33 C-55.63597631 31.56496445 -55.28413409 30.12683494 -54.9375 28.6875 C-54.74027344 27.88699219 -54.54304688 27.08648437 -54.33984375 26.26171875 C-53.80114446 23.84042821 -53.80114446 23.84042821 -55 21 C-55.66 20.67 -56.32 20.34 -57 20 C-56.67 18.68 -56.34 17.36 -56 16 C-54.68 16 -53.36 16 -52 16 C-47.78609577 22.58422536 -50.55494951 30.8650632 -52 38 C-50.35 38.66 -48.7 39.32 -47 40 C-46.97113463 35.68751391 -46.95324745 31.37505238 -46.9375 27.0625 C-46.92912109 25.83080078 -46.92074219 24.59910156 -46.91210938 23.33007812 C-46.90888672 22.16025391 -46.90566406 20.99042969 -46.90234375 19.78515625 C-46.89710693 18.70113525 -46.89187012 17.61711426 -46.88647461 16.50024414 C-46.71573103 14.05950052 -46.71573103 14.05950052 -48 13 C-50.46981769 12.8997926 -52.90551224 12.86122962 -55.375 12.875 C-56.06078125 12.87113281 -56.7465625 12.86726563 -57.453125 12.86328125 C-60.57222638 12.86934954 -63.01975635 13.00658545 -66 14 C-66.625 12.125 -66.625 12.125 -67 10 C-63.11290255 6.11290255 -56.44454852 7.01019979 -51.19140625 6.98828125 C-47.05717019 7.2032861 -44.68123836 7.49303192 -41.3125 10 C-39.46937459 14.21285807 -40.29211964 17.61366992 -41 22 C-42.41124697 34.31901005 -42.93543538 46.67516556 -35 57 C-32.93025859 58.71739913 -32.93025859 58.71739913 -31 60 C-31.15662109 59.02160156 -31.15662109 59.02160156 -31.31640625 58.0234375 C-31.58509744 55.13180855 -31.63222859 52.8429071 -31 50 C-27.80935606 46.69564338 -23.89336596 44.87870749 -19.76953125 42.96484375 C-17.45834669 41.70466144 -17.07271815 40.35997992 -16 38 C-15 37 -14 36 -13 35 C-12.67 34.01 -12.34 33.02 -12 32 C-10.35360035 30.64172029 -8.68704193 29.30745749 -7 28 C-6.67 27.34 -6.34 26.68 -6 26 C-5.34 26 -4.68 26 -4 26 C-3.67 24.35 -3.34 22.7 -3 21 C-3.70125 21.20496094 -4.4025 21.40992187 -5.125 21.62109375 C-10.76853609 23.22367397 -16.15876543 24.44894013 -22 25 C-22 24.01 -22 23.02 -22 22 C-19.03821227 20.32889958 -16.62928808 19.67317248 -13.25 19.375 C-12.45078125 19.30023438 -11.6515625 19.22546875 -10.828125 19.1484375 C-10.22484375 19.09945312 -9.6215625 19.05046875 -9 19 C-9.10613836 16.54775306 -9.10613836 16.54775306 -10 14 C-12.47130918 12.84478498 -12.47130918 12.84478498 -15 12 C-15.495 10.515 -15.495 10.515 -16 9 C-13.087425 9.08566397 -11.43201976 9.57910955 -9.33203125 11.625 C-7.83908228 13.38391375 -6.39563738 15.16313019 -5 17 C-0.98469495 16.08743067 0.71128275 15.34949983 3.375 12.125 C5.30756849 8.99556392 5.30756849 8.99556392 5 5 C2.53673288 3.3553326 2.53673288 3.3553326 0 2 C0 1.34 0 0.68 0 0 Z M-68 29 C-68.33745354 31.39531756 -68.6700829 33.79114268 -69 36.1875 C-69.09539062 36.86103516 -69.19078125 37.53457031 -69.2890625 38.22851562 C-69.78324613 41.84664577 -70.11346131 45.34796401 -70 49 C-67.9600281 47.63676257 -67.9600281 47.63676257 -66 46 C-66 45.34 -66 44.68 -66 44 C-64.68 43.67 -63.36 43.34 -62 43 C-62 42.01 -62 41.02 -62 40 C-61.34 40 -60.68 40 -60 40 C-60 38.68 -60 37.36 -60 36 C-60.66 36 -61.32 36 -62 36 C-62 35.34 -62 34.68 -62 34 C-62.66 34 -63.32 34 -64 34 C-64 33.34 -64 32.68 -64 32 C-64.66 32 -65.32 32 -66 32 C-66.33 31.01 -66.66 30.02 -67 29 C-67.33 29 -67.66 29 -68 29 Z " fill="#38554A" transform="translate(88,62)"/>
<path d="M0 0 C0.495 0.99 0.495 0.99 1 2 C3.02463255 2.65213292 3.02463255 2.65213292 5 3 C5.054348 5.0622048 5.09294961 7.12482816 5.125 9.1875 C5.14820313 10.33605469 5.17140625 11.48460938 5.1953125 12.66796875 C5.00484152 15.91740372 4.39360127 18.08660521 3 21 C1.56274129 21.16873478 0.12518162 21.33490737 -1.3125 21.5 C-2.11300781 21.5928125 -2.91351563 21.685625 -3.73828125 21.78125 C-6 22 -6 22 -9 22 C-9.80229137 23.49434423 -10.59121867 24.99586472 -11.375 26.5 C-11.81585938 27.3353125 -12.25671875 28.170625 -12.7109375 29.03125 C-15.71011428 35.938445 -16.35100301 42.56783175 -16.625 50 C-16.66367188 50.87011719 -16.70234375 51.74023438 -16.7421875 52.63671875 C-16.83540887 54.75750486 -16.91874136 56.87872185 -17 59 C-16.34 59 -15.68 59 -15 59 C-15 60.32 -15 61.64 -15 63 C-15.66 63 -16.32 63 -17 63 C-17 63.99 -17 64.98 -17 66 C-16.05125 65.9175 -15.1025 65.835 -14.125 65.75 C-9.78184723 65.72351736 -6.34805579 67.28097833 -2.4296875 69.02734375 C5.94137223 72.3784593 13.47677745 71.04156351 21.90234375 68.8046875 C35.55497685 65.25810185 35.55497685 65.25810185 42 67 C38.88784553 69.07476964 36.67060134 69.71064913 33.0625 70.5625 C32.02222656 70.81128906 30.98195313 71.06007813 29.91015625 71.31640625 C28.94980469 71.54199219 27.98945313 71.76757812 27 72 C25.66602491 72.33075573 24.3323837 72.66289087 23 73 C23 73.66 23 74.32 23 75 C11.46704838 75.72206306 0.93094784 73.64364928 -10 70 C-11.57926978 69.87566595 -13.16258165 69.7990886 -14.74609375 69.75390625 C-16.12571289 69.70459961 -16.12571289 69.70459961 -17.53320312 69.65429688 C-19.46537904 69.59322608 -21.39767767 69.53591844 -23.33007812 69.48242188 C-24.25111328 69.44826172 -25.17214844 69.41410156 -26.12109375 69.37890625 C-26.9608374 69.3538501 -27.80058105 69.32879395 -28.66577148 69.30297852 C-31.17338477 68.97749498 -32.77842378 68.16354587 -35 67 C-38.42588903 66.79025169 -40.7322278 66.9107426 -44 68 C-42.125 64.125 -42.125 64.125 -41 63 C-36.33254557 62.73072378 -33.26087623 63.23329522 -29 65 C-26.36 65.33 -23.72 65.66 -21 66 C-21 59.07 -21 52.14 -21 45 C-21.66 45 -22.32 45 -23 45 C-23 45.66 -23 46.32 -23 47 C-27.61434075 49.53044493 -32.00934517 49.21579803 -37 48 C-37.66 47.34 -38.32 46.68 -39 46 C-38.625 43.375 -38.625 43.375 -38 41 C-30.63856502 38.47802691 -30.63856502 38.47802691 -26.62109375 39.7578125 C-24.67492289 40.75352783 -22.82445361 41.7969543 -21 43 C-20.77814156 40.73044814 -20.57294485 38.45926245 -20.375 36.1875 C-20.25898437 34.92292969 -20.14296875 33.65835938 -20.0234375 32.35546875 C-19.68558196 28.86442059 -19.68558196 28.86442059 -22 26 C-20.1875 24.9375 -20.1875 24.9375 -18 24 C-17.01 24.33 -16.02 24.66 -15 25 C-14.34 23.02 -13.68 21.04 -13 19 C-12.34 19 -11.68 19 -11 19 C-11.226875 17.783125 -11.45375 16.56625 -11.6875 15.3125 C-12.05381089 12.30238004 -12.05485661 11.13409394 -10.875 8.25 C-7.79281749 4.55138099 -4.3968375 1.95415 0 0 Z " fill="#385549" transform="translate(125,63)"/>
<path d="M0 0 C1.24458984 -0.00773437 2.48917969 -0.01546875 3.77148438 -0.0234375 C4.97482422 -0.02085938 6.17816406 -0.01828125 7.41796875 -0.015625 C8.50231201 -0.01336914 9.58665527 -0.01111328 10.70385742 -0.00878906 C14.00973051 0.2664191 16.71904654 1.08011637 19.8125 2.25 C19.1875 4.1875 19.1875 4.1875 17.8125 6.25 C14.7265625 6.87890625 14.7265625 6.87890625 11.8125 7.25 C13.58279446 8.54240512 15.35375498 9.83389793 17.125 11.125 C18.11113281 11.84429687 19.09726563 12.56359375 20.11328125 13.3046875 C21.98773115 14.6555935 23.89002993 15.96835329 25.8125 17.25 C25.3175 18.735 25.3175 18.735 24.8125 20.25 C21.1908214 20.57542619 19.34328126 20.59898462 16.2578125 18.5703125 C15.49210937 17.84585938 14.72640625 17.12140625 13.9375 16.375 C12.76574219 15.29605469 12.76574219 15.29605469 11.5703125 14.1953125 C9.8125 12.25 9.8125 12.25 9.8125 10.25 C5.52948977 7.94376372 1.6175917 6.21389817 -3.3125 6.3125 C-6.92066381 7.48907516 -8.01349044 9.22191526 -10.1875 12.25 C-10.8475 12.25 -11.5075 12.25 -12.1875 12.25 C-12.1875 12.91 -12.1875 13.57 -12.1875 14.25 C-14.12109375 15.6875 -14.12109375 15.6875 -16.625 17.25 C-19.99756651 19.2029916 -19.99756651 19.2029916 -22.1875 22.25 C-22.8475 22.25 -23.5075 22.25 -24.1875 22.25 C-24.1875 21.59 -24.1875 20.93 -24.1875 20.25 C-25.5075 19.92 -26.8275 19.59 -28.1875 19.25 C-28.1875 18.26 -28.1875 17.27 -28.1875 16.25 C-27.20007813 15.76789063 -26.21265625 15.28578125 -25.1953125 14.7890625 C-23.9009369 14.15125423 -22.60667179 13.51322171 -21.3125 12.875 C-20.66152344 12.55789062 -20.01054687 12.24078125 -19.33984375 11.9140625 C-16.60572959 10.56109879 -14.35977482 9.42227482 -12.1875 7.25 C-13.23550781 7.37568359 -13.23550781 7.37568359 -14.3046875 7.50390625 C-15.21476563 7.60574219 -16.12484375 7.70757812 -17.0625 7.8125 C-17.96742188 7.91691406 -18.87234375 8.02132812 -19.8046875 8.12890625 C-22.1875 8.25 -22.1875 8.25 -24.1875 7.25 C-23.8575 5.6 -23.5275 3.95 -23.1875 2.25 C-15.39959731 0.12832273 -8.04509712 -0.05046585 0 0 Z " fill="#355347" transform="translate(156.1875,79.75)"/>
<path d="M0 0 C0.99 0 1.98 0 3 0 C3.20625 0.78375 3.4125 1.5675 3.625 2.375 C4.80676612 5.30916286 4.80676612 5.30916286 8.125 6.3125 C9.07375 6.539375 10.0225 6.76625 11 7 C10.67 7.99 10.34 8.98 10 10 C8.02 10.33 6.04 10.66 4 11 C3.67 12.32 3.34 13.64 3 15 C3.81984375 14.97679688 4.6396875 14.95359375 5.484375 14.9296875 C7.10085937 14.90261719 7.10085937 14.90261719 8.75 14.875 C10.35101563 14.84019531 10.35101563 14.84019531 11.984375 14.8046875 C14.92470106 14.99512313 16.52361878 15.47329896 19 17 C19 18.98 19 20.96 19 23 C18.34 23 17.68 23 17 23 C17 22.34 17 21.68 17 21 C12.67551867 20.26167392 8.34464536 19.60825035 4 19 C4.01160156 19.98742187 4.02320313 20.97484375 4.03515625 21.9921875 C4.04417969 23.27351563 4.05320313 24.55484375 4.0625 25.875 C4.07410156 27.15117188 4.08570313 28.42734375 4.09765625 29.7421875 C4 33 4 33 3 35 C1.68 35 0.36 35 -1 35 C-1 29.72 -1 24.44 -1 19 C-3.908125 19.7734375 -3.908125 19.7734375 -6.875 20.5625 C-12.75 22.125 -12.75 22.125 -15 21 C-15 19.68 -15 18.36 -15 17 C-5.58997722 14.70387244 -5.58997722 14.70387244 -1 15 C-1.33 13.68 -1.66 12.36 -2 11 C-4.31 11 -6.62 11 -9 11 C-9 9.68 -9 8.36 -9 7 C-6.29120665 5.64560332 -3.99066732 5.93498549 -1 6 C-0.67 4.02 -0.34 2.04 0 0 Z " fill="#365448" transform="translate(153,87)"/>
<path d="M0 0 C0.99 0.33 1.98 0.66 3 1 C3 2.32 3 3.64 3 5 C2.34 5 1.68 5 1 5 C1 5.99 1 6.98 1 8 C1.94875 7.9175 2.8975 7.835 3.875 7.75 C8.21815277 7.72351736 11.65194421 9.28097833 15.5703125 11.02734375 C23.94137223 14.3784593 31.47677745 13.04156351 39.90234375 10.8046875 C53.55497685 7.25810185 53.55497685 7.25810185 60 9 C56.88784553 11.07476964 54.67060134 11.71064913 51.0625 12.5625 C50.02222656 12.81128906 48.98195313 13.06007812 47.91015625 13.31640625 C46.94980469 13.54199219 45.98945313 13.76757812 45 14 C43.66602491 14.33075573 42.3323837 14.66289087 41 15 C41 15.66 41 16.32 41 17 C29.46704838 17.72206306 18.93094784 15.64364928 8 12 C6.42073022 11.87566595 4.83741835 11.7990886 3.25390625 11.75390625 C1.87428711 11.70459961 1.87428711 11.70459961 0.46679688 11.65429688 C-1.46537904 11.59322608 -3.39767767 11.53591844 -5.33007812 11.48242188 C-6.25111328 11.44826172 -7.17214844 11.41410156 -8.12109375 11.37890625 C-8.9608374 11.3538501 -9.80058105 11.32879395 -10.66577148 11.30297852 C-13.17338477 10.97749498 -14.77842378 10.16354587 -17 9 C-20.42588903 8.79025169 -22.7322278 8.9107426 -26 10 C-24.125 6.125 -24.125 6.125 -23 5 C-18.33254557 4.73072378 -15.26087623 5.23329522 -11 7 C-8.33612619 7.45395602 -5.69119651 7.726319 -3 8 C-2.690625 6.865625 -2.38125 5.73125 -2.0625 4.5625 C-1 1 -1 1 0 0 Z " fill="#385449" transform="translate(107,121)"/>
<path d="M0 0 C2 1.3125 2 1.3125 2.8125 3.9375 C2.874375 4.72125 2.93625 5.505 3 6.3125 C1.02 7.3025 1.02 7.3025 -1 8.3125 C-1 8.9725 -1 9.6325 -1 10.3125 C-7.32278971 9.98623505 -12.55464391 9.69745108 -18 6.3125 C-17.8125 3.9375 -17.8125 3.9375 -17 1.3125 C-12.10337382 -1.90091093 -5.48836831 -1.25775107 0 0 Z " fill="#325045" transform="translate(127,113.6875)"/>
<path d="M0 0 C0.7425 0.185625 1.485 0.37125 2.25 0.5625 C4.94990963 0.99203108 6.44631077 0.85122974 9 0 C8.47731534 2.76276177 7.89130413 5.3260876 7 8 C8.32 6.68 9.64 5.36 11 4 C10.25 11.625 10.25 11.625 8 15 C5.90625 15.328125 5.90625 15.328125 3.5 15.25 C2.30890625 15.22679688 2.30890625 15.22679688 1.09375 15.203125 C-1 15 -1 15 -3 14 C-3.31693764 8.717706 -2.62148584 5.58760022 0 1 C0 0.67 0 0.34 0 0 Z " fill="#89554E" transform="translate(118,67)"/>
<path d="M0 0 C0.70125 0.515625 1.4025 1.03125 2.125 1.5625 C2.125 2.2225 2.125 2.8825 2.125 3.5625 C1.465 3.5625 0.805 3.5625 0.125 3.5625 C0.125 4.2225 0.125 4.8825 0.125 5.5625 C-4.48934075 8.09294493 -8.88434517 7.77829803 -13.875 6.5625 C-14.535 5.9025 -15.195 5.2425 -15.875 4.5625 C-15.5 1.9375 -15.5 1.9375 -14.875 -0.4375 C-9.17523401 -2.74454814 -5.5192166 -2.7596083 0 0 Z " fill="#345246" transform="translate(101.875,104.4375)"/>
<path d="M0 0 C0 0.33 0 0.66 0 1 C-1.98 1.33 -3.96 1.66 -6 2 C-4.22970554 3.29240512 -2.45874502 4.58389793 -0.6875 5.875 C0.29863281 6.59429687 1.28476563 7.31359375 2.30078125 8.0546875 C4.17523115 9.4055935 6.07752993 10.71835329 8 12 C7.67 12.99 7.34 13.98 7 15 C3.3783214 15.32542619 1.53078126 15.34898462 -1.5546875 13.3203125 C-2.32039062 12.59585938 -3.08609375 11.87140625 -3.875 11.125 C-4.65617188 10.40570313 -5.43734375 9.68640625 -6.2421875 8.9453125 C-8 7 -8 7 -8 5 C-8.61875 4.71125 -9.2375 4.4225 -9.875 4.125 C-12 3 -12 3 -14 1 C-9.32798795 -0.20568053 -4.78503708 -0.09382426 0 0 Z " fill="#3C594D" transform="translate(174,85)"/>
<path d="M0 0 C0.99 0.33 1.98 0.66 3 1 C3 2.32 3 3.64 3 5 C2.34 5 1.68 5 1 5 C1.185625 5.61875 1.37125 6.2375 1.5625 6.875 C2 9 2 9 1 11 C-1.24973447 11.054138 -3.49984383 11.09285491 -5.75 11.125 C-7.00296875 11.14820313 -8.2559375 11.17140625 -9.546875 11.1953125 C-12.81124514 11.01067618 -14.25452544 10.58558868 -17 9 C-20.42588903 8.79025169 -22.7322278 8.9107426 -26 10 C-24.125 6.125 -24.125 6.125 -23 5 C-18.33254557 4.73072378 -15.26087623 5.23329522 -11 7 C-8.33612619 7.45395602 -5.69119651 7.726319 -3 8 C-2.690625 6.865625 -2.38125 5.73125 -2.0625 4.5625 C-1 1 -1 1 0 0 Z " fill="#2D473E" transform="translate(107,121)"/>
<path d="M0 0 C0.33 0.66 0.66 1.32 1 2 C3.02463255 2.65213292 3.02463255 2.65213292 5 3 C5.02693575 5.12493141 5.04636628 7.24995912 5.0625 9.375 C5.07410156 10.55835937 5.08570313 11.74171875 5.09765625 12.9609375 C5 16 5 16 4 18 C3.01 17.67 2.02 17.34 1 17 C1.66 14.69 2.32 12.38 3 10 C2.01 10.99 1.02 11.98 0 13 C-0.66 12.67 -1.32 12.34 -2 12 C-0.68 9.36 0.64 6.72 2 4 C0.02 4.66 -1.96 5.32 -4 6 C-4.66 5.01 -5.32 4.02 -6 3 C-4.02 2.01 -2.04 1.02 0 0 Z " fill="#516358" transform="translate(125,63)"/>
<path d="M0 0 C5.77592082 0.41086034 5.77592082 0.41086034 11.5625 0.5625 C10 2.5625 10 2.5625 7.5625 4.5625 C3.78967474 4.89344958 1.15514452 4.76004817 -2.4375 3.5625 C-3.99868428 3.49509135 -5.5625252 3.47735544 -7.125 3.5 C-7.93324219 3.50902344 -8.74148437 3.51804688 -9.57421875 3.52734375 C-10.18910156 3.53894531 -10.80398437 3.55054688 -11.4375 3.5625 C-11.1075 2.5725 -10.7775 1.5825 -10.4375 0.5625 C-7.15333497 -1.07958252 -3.57774748 -0.25703058 0 0 Z " fill="#3D5B50" transform="translate(100.4375,133.4375)"/>
<path d="M0 0 C-3.11215447 2.07476964 -5.32939866 2.71064913 -8.9375 3.5625 C-9.97777344 3.81128906 -11.01804688 4.06007812 -12.08984375 4.31640625 C-13.53037109 4.65478516 -13.53037109 4.65478516 -15 5 C-16.33397509 5.33075573 -17.6676163 5.66289087 -19 6 C-18.328125 3.5859375 -18.328125 3.5859375 -17 1 C-11.65938161 -1.14671916 -5.54967162 -1.49991125 0 0 Z " fill="#39574A" transform="translate(167,130)"/>
<path d="M0 0 C1.875 0.1875 1.875 0.1875 4 1 C6.09242143 4.6617375 6.19324053 7.84532871 6 12 C4.68 12 3.36 12 2 12 C0.00214565 7.8794254 -0.17835515 4.54805635 0 0 Z " fill="#355449" transform="translate(140,66)"/>
<path d="M0 0 C0.99 0.33 1.98 0.66 3 1 C2.125 7.75 2.125 7.75 1 10 C0.34 10 -0.32 10 -1 10 C-1 10.66 -1 11.32 -1 12 C-1.99 11.67 -2.98 11.34 -4 11 C-3.48964169 6.6109185 -2.47785723 3.66291938 0 0 Z " fill="#355047" transform="translate(165,66)"/>
<path d="M0 0 C0.99 0.33 1.98 0.66 3 1 C3.125 8.625 3.125 8.625 2 12 C1.01 11.67 0.02 11.34 -1 11 C-1.22174933 9.54364629 -1.42698698 8.08477044 -1.625 6.625 C-1.74101562 5.81289062 -1.85703125 5.00078125 -1.9765625 4.1640625 C-1.98429688 3.44992188 -1.99203125 2.73578125 -2 2 C-1.34 1.34 -0.68 0.68 0 0 Z " fill="#37584B" transform="translate(154,66)"/>
<path d="M0 0 C1.60600892 3.21201784 0.05786315 5.70887021 -1 9 C-1.33 9.66 -1.66 10.32 -2 11 C-4.31 10.67 -6.62 10.34 -9 10 C-6.22237877 6.39937989 -3.26008643 3.16952847 0 0 Z " fill="#E6DAD4" transform="translate(128,71)"/>
<path d="M0 0 C3.48221175 0.17411059 5.65214817 0.68551124 8.75 2.1875 C7.76 2.6825 7.76 2.6825 6.75 3.1875 C6.75 3.8475 6.75 4.5075 6.75 5.1875 C6.06292969 5.10371094 5.37585938 5.01992187 4.66796875 4.93359375 C3.76691406 4.83175781 2.86585937 4.72992188 1.9375 4.625 C1.04417969 4.52058594 0.15085937 4.41617188 -0.76953125 4.30859375 C-3.38375572 4.03091291 -3.38375572 4.03091291 -6.25 5.1875 C-3.84731972 0.22196075 -3.84731972 0.22196075 0 0 Z " fill="#405E52" transform="translate(87.25,125.8125)"/>
<path d="M0 0 C0.33 0 0.66 0 1 0 C1 2.97 1 5.94 1 9 C0.01 9.33 -0.98 9.66 -2 10 C-2.33 9.67 -2.66 9.34 -3 9 C-2.4 2.4 -2.4 2.4 0 0 Z " fill="#E6CEC8" transform="translate(118,70)"/>
<path d="M0 0 C1.2065625 0.0309375 1.2065625 0.0309375 2.4375 0.0625 C0.96057692 4.73942308 0.96057692 4.73942308 -1.6875 6.375 C-2.615625 6.7153125 -2.615625 6.7153125 -3.5625 7.0625 C-3.60504356 5.06295254 -3.60330783 3.06208364 -3.5625 1.0625 C-2.5625 0.0625 -2.5625 0.0625 0 0 Z " fill="#D39389" transform="translate(123.5625,69.9375)"/>
<path d="M0 0 C1.32 0 2.64 0 4 0 C4.33 0.99 4.66 1.98 5 3 C4.67 3.66 4.34 4.32 4 5 C2.35 4.67 0.7 4.34 -1 4 C-0.67 2.68 -0.34 1.36 0 0 Z " fill="#38574B" transform="translate(32,78)"/>
<path d="M0 0 C0 0.66 0 1.32 0 2 C0.99 2 1.98 2 3 2 C2.67 2.99 2.34 3.98 2 5 C2 4.34 2 3.68 2 3 C0.02 3.66 -1.96 4.32 -4 5 C-4.66 4.01 -5.32 3.02 -6 2 C-2.25 0 -2.25 0 0 0 Z " fill="#3F554A" transform="translate(125,64)"/>
<path d="M0 0 C0.66 0.99 1.32 1.98 2 3 C2.66 3.33 3.32 3.66 4 4 C2.68 5.65 1.36 7.3 0 9 C-1.32 8.67 -2.64 8.34 -4 8 C-3.67 7.34 -3.34 6.68 -3 6 C-2.01 6 -1.02 6 0 6 C0 4.02 0 2.04 0 0 Z " fill="#6E7F74" transform="translate(119,73)"/>
<path d="M0 0 C1.134375 0.020625 2.26875 0.04125 3.4375 0.0625 C1.33967213 2.16032787 0.0575793 2.7134396 -2.6875 3.6875 C-3.41195312 3.94789063 -4.13640625 4.20828125 -4.8828125 4.4765625 C-5.71425781 4.76660156 -5.71425781 4.76660156 -6.5625 5.0625 C-4.14811644 0.07277397 -4.14811644 0.07277397 0 0 Z " fill="#3A524A" transform="translate(87.5625,125.9375)"/>
<path d="M0 0 C0.66 0.33 1.32 0.66 2 1 C1.2575 1.8971875 1.2575 1.8971875 0.5 2.8125 C-1.28276418 4.97029994 -1.28276418 4.97029994 -1 8 C-2.32 8 -3.64 8 -5 8 C-3.62845496 5.04590299 -2.01136276 2.55991624 0 0 Z " fill="#486158" transform="translate(22,106)"/>
<path d="M0 0 C1.9375 0.375 1.9375 0.375 4 1 C4.33 1.66 4.66 2.32 5 3 C2.69 3.66 0.38 4.32 -2 5 C-1.34 3.35 -0.68 1.7 0 0 Z " fill="#426054" transform="translate(150,131)"/>
<path d="M0 0 C0.66 0.66 1.32 1.32 2 2 C-0.55068845 4.35448165 -1.71017358 4.98327924 -5.25 5.1875 C-6.1575 5.125625 -7.065 5.06375 -8 5 C-8 4.67 -8 4.34 -8 4 C-6.35 4 -4.7 4 -3 4 C-3 3.34 -3 2.68 -3 2 C-2.01 1.34 -1.02 0.68 0 0 Z " fill="#547265" transform="translate(110,133)"/>
<path d="M0 0 C0.99 0.33 1.98 0.66 3 1 C2.67 2.32 2.34 3.64 2 5 C1.01 5 0.02 5 -1 5 C-0.67 3.35 -0.34 1.7 0 0 Z " fill="#39574B" transform="translate(154,124)"/>
</svg>
