<?xml version="1.0" encoding="UTF-8"?>
<svg version="1.1" xmlns="http://www.w3.org/2000/svg" width="200" height="200">
<path d="M0 0 C8 0 8 0 10.42578125 1.828125 C11.04839844 2.62734375 11.67101562 3.4265625 12.3125 4.25 C12.94800781 5.03890625 13.58351562 5.8278125 14.23828125 6.640625 C15.11033203 7.80851562 15.11033203 7.80851562 16 9 C16.99 10.32 17.98 11.64 19 13 C19.33 8.71 19.66 4.42 20 0 C22.31 0 24.62 0 27 0 C27 8.58 27 17.16 27 26 C19 26 19 26 17.17382812 24.80664062 C16.79677734 24.26201172 16.41972656 23.71738281 16.03125 23.15625 C15.60585937 22.56972656 15.18046875 21.98320313 14.7421875 21.37890625 C14.33226562 20.75886719 13.92234375 20.13882813 13.5 19.5 C13.05914062 18.87996094 12.61828125 18.25992188 12.1640625 17.62109375 C11.08564761 16.09724662 10.03946518 14.55067756 9 13 C8.67 17.29 8.34 21.58 8 26 C5.36 26 2.72 26 0 26 C0 17.42 0 8.84 0 0 Z " fill="#000000" transform="translate(157,87)"/>
<path d="M0 0 C3.75835253 2.42204941 6.18495565 4.48714731 7.3828125 8.92578125 C8.1953797 14.06915871 7.88205337 17.41280683 4.8125 21.8125 C1.18615898 25.16686544 -1.41820867 26.63904007 -6.375 27.125 C-12.013901 26.662795 -16.28607668 24.83276228 -20.1875 20.6875 C-22.1561824 15.0275381 -22.10592132 9.83302689 -19.625 4.375 C-14.15616987 -1.37428296 -7.3776293 -2.74852856 0 0 Z M-14.1875 10.8125 C-14.25839184 14.35709212 -13.84156211 16.03265672 -11.5625 18.75 C-8.11232276 20.29350034 -5.78750284 19.74583407 -2.1875 18.8125 C0.13999345 15.32125983 0.31549316 13.92027749 -0.1875 9.8125 C-2.14273737 7.06068444 -3.32809407 6.01082445 -6.625 5.25 C-10.42242622 6.08358137 -11.90459901 7.72386925 -14.1875 10.8125 Z " fill="#000000" transform="translate(146.1875,87.1875)"/>
<path d="M0 0 C2.64 0 5.28 0 8 0 C8 2.97 8 5.94 8 9 C11.96 9 15.92 9 20 9 C20 6.03 20 3.06 20 0 C22.31 0 24.62 0 27 0 C27 8.58 27 17.16 27 26 C24.69 26 22.38 26 20 26 C20 23.03 20 20.06 20 17 C16.04 17 12.08 17 8 17 C8 19.97 8 22.94 8 26 C5.36 26 2.72 26 0 26 C0 17.42 0 8.84 0 0 Z " fill="#000000" transform="translate(11,87)"/>
<path d="M0 0 C3.63 0 7.26 0 11 0 C14.58819202 8.50534404 17.32859852 17.17561643 20 26 C17.36 26 14.72 26 12 26 C11.34 24.02 10.68 22.04 10 20 C7.03 20 4.06 20 1 20 C0.67 21.98 0.34 23.96 0 26 C-2.64 26 -5.28 26 -8 26 C-6.36231563 16.99273599 -3.13020303 8.57360642 0 0 Z M5 8 C4.67 9.98 4.34 11.96 4 14 C5.32 13.67 6.64 13.34 8 13 C7.34 11.35 6.68 9.7 6 8 C5.67 8 5.34 8 5 8 Z " fill="#000000" transform="translate(50,87)"/>
<path d="M0 0 C2.64 0 5.28 0 8 0 C8 6.27 8 12.54 8 19 C12.62 19 17.24 19 22 19 C22 21.31 22 23.62 22 26 C14.74 26 7.48 26 0 26 C0 17.42 0 8.84 0 0 Z " fill="#000000" transform="translate(73,87)"/>
<path d="M0 0 C1.40958984 -0.00193359 1.40958984 -0.00193359 2.84765625 -0.00390625 C3.83636719 -0.00003906 4.82507813 0.00382812 5.84375 0.0078125 C7.32681641 0.00201172 7.32681641 0.00201172 8.83984375 -0.00390625 C9.77957031 -0.00261719 10.71929687 -0.00132813 11.6875 0 C12.55568359 0.00112793 13.42386719 0.00225586 14.31835938 0.00341797 C16.34375 0.1328125 16.34375 0.1328125 17.34375 1.1328125 C17.46875 4.1328125 17.46875 4.1328125 17.34375 7.1328125 C15.72174485 8.75481765 13.92351969 8.26272 11.6875 8.265625 C10.27791016 8.26755859 10.27791016 8.26755859 8.83984375 8.26953125 C7.85113281 8.26566406 6.86242187 8.26179688 5.84375 8.2578125 C4.85503906 8.26167969 3.86632812 8.26554687 2.84765625 8.26953125 C1.90792969 8.26824219 0.96820313 8.26695313 0 8.265625 C-0.86818359 8.26449707 -1.73636719 8.26336914 -2.63085938 8.26220703 C-4.65625 8.1328125 -4.65625 8.1328125 -5.65625 7.1328125 C-5.78125 4.1328125 -5.78125 4.1328125 -5.65625 1.1328125 C-4.03424485 -0.48919265 -2.23601969 0.002905 0 0 Z " fill="#29EB00" transform="translate(103.65625,95.8671875)"/>
<path d="M0 0 C7.59 0 15.18 0 23 0 C23 2.31 23 4.62 23 7 C15.41 7 7.82 7 0 7 C0 4.69 0 2.38 0 0 Z " fill="#000000" transform="translate(98,106)"/>
<path d="M0 0 C7.59 0 15.18 0 23 0 C23 2.31 23 4.62 23 7 C15.41 7 7.82 7 0 7 C0 4.69 0 2.38 0 0 Z " fill="#000000" transform="translate(98,87)"/>
</svg>
